<?xml version="1.0" encoding="iso-8859-1"?>
<!-- Uploaded to: SVG Repo, www.svgrepo.com, Generator: SVG Repo Mixer Tools -->
<svg height="800px" width="800px" version="1.1" id="Layer_1" xmlns="http://www.w3.org/2000/svg" xmlns:xlink="http://www.w3.org/1999/xlink" 
	 viewBox="0 0 512 512" xml:space="preserve">
<path style="fill:#7DFAA0;" d="M203.034,229.517H26.483C11.857,229.517,0,217.661,0,203.034V26.483C0,11.857,11.857,0,26.483,0
	h176.552c14.626,0,26.483,11.857,26.483,26.483v176.552C229.517,217.661,217.661,229.517,203.034,229.517z"/>
<path style="fill:#FF4B4B;" d="M485.517,229.517H308.966c-14.626,0-26.483-11.857-26.483-26.483V26.483
	C282.483,11.857,294.339,0,308.966,0h176.552C500.143,0,512,11.857,512,26.483v176.552C512,217.661,500.143,229.517,485.517,229.517
	z"/>
<path style="fill:#FFDC64;" d="M203.034,512H26.483C11.857,512,0,500.143,0,485.517V308.966c0-14.626,11.857-26.483,26.483-26.483
	h176.552c14.626,0,26.483,11.857,26.483,26.483v176.552C229.517,500.143,217.661,512,203.034,512z"/>
<path style="fill:#00C3FF;" d="M485.517,512H308.966c-14.626,0-26.483-11.857-26.483-26.483V308.966
	c0-14.626,11.857-26.483,26.483-26.483h176.552c14.626,0,26.483,11.857,26.483,26.483v176.552C512,500.143,500.143,512,485.517,512z
	"/>
<g>
	<path style="fill:#FFFFFF;" d="M167.724,105.931h-44.138V61.793c0-4.875-3.948-8.828-8.828-8.828c-4.879,0-8.828,3.953-8.828,8.828
		v44.138H61.793c-4.879,0-8.828,3.953-8.828,8.828c0,4.875,3.948,8.828,8.828,8.828h44.138v44.138c0,4.875,3.948,8.828,8.828,8.828
		c4.879,0,8.828-3.953,8.828-8.828v-44.138h44.138c4.879,0,8.828-3.953,8.828-8.828
		C176.552,109.884,172.604,105.931,167.724,105.931z"/>
	<path style="fill:#FFFFFF;" d="M344.276,123.586h105.931c4.879,0,8.828-3.953,8.828-8.828c0-4.875-3.948-8.828-8.828-8.828H344.276
		c-4.879,0-8.828,3.953-8.828,8.828C335.448,119.634,339.396,123.586,344.276,123.586z"/>
	<path style="fill:#FFFFFF;" d="M450.207,388.414H344.276c-4.879,0-8.828,3.953-8.828,8.828c0,4.875,3.948,8.828,8.828,8.828
		h105.931c4.879,0,8.828-3.953,8.828-8.828C459.034,392.366,455.086,388.414,450.207,388.414z"/>
	<path style="fill:#FFFFFF;" d="M165.138,346.862c-3.448-3.448-9.035-3.448-12.483,0l-37.896,37.897l-37.897-37.897
		c-3.448-3.448-9.035-3.448-12.483,0c-3.448,3.448-3.448,9.035,0,12.483l37.898,37.896L64.38,435.138
		c-3.448,3.448-3.448,9.035,0,12.483c1.724,1.724,3.982,2.585,6.241,2.585s4.518-0.862,6.241-2.586l37.897-37.896l37.897,37.897
		c1.725,1.725,3.982,2.586,6.241,2.586s4.518-0.862,6.241-2.586c3.448-3.448,3.448-9.035,0-12.483l-37.896-37.897l37.897-37.897
		C168.586,355.896,168.586,350.311,165.138,346.862z"/>
	<path style="fill:#FFFFFF;" d="M388.414,344.319c0,4.875,3.991,8.871,8.871,8.871c4.879,0,8.871-3.996,8.871-8.871
		s-3.991-8.871-8.871-8.871C392.405,335.448,388.414,339.444,388.414,344.319z"/>
	<path style="fill:#FFFFFF;" d="M397.284,441.293c-4.879,0-8.871,3.996-8.871,8.871s3.991,8.871,8.871,8.871
		c4.879,0,8.871-3.996,8.871-8.871S402.164,441.293,397.284,441.293z"/>
</g>
</svg>